<?xml version="1.0" standalone="no"?>
<!DOCTYPE svg PUBLIC "-//W3C//DTD SVG 20010904//EN"
 "http://www.w3.org/TR/2001/REC-SVG-20010904/DTD/svg10.dtd">
<svg version="1.0" xmlns="http://www.w3.org/2000/svg"
 width="300.000000pt" height="300.000000pt" viewBox="0 0 300.000000 300.000000"
 preserveAspectRatio="xMidYMid meet">

<g transform="translate(0.000000,300.000000) scale(0.100000,-0.100000)"
fill="#000000" stroke="none">
<path d="M1390 2973 c-587 -43 -1102 -438 -1298 -993 -66 -188 -76 -256 -76
-480 0 -174 3 -220 22 -307 143 -658 686 -1133 1353 -1183 419 -31 832 116
1135 403 483 456 602 1155 300 1755 -90 179 -247 368 -409 493 -230 178 -493
281 -792 309 -107 10 -140 10 -235 3z m766 -880 c63 -34 97 -66 129 -125 l30
-53 3 -421 c3 -406 2 -423 -18 -477 -25 -65 -81 -126 -148 -159 l-47 -23 -580
0 -580 0 -55 31 c-60 33 -112 99 -130 162 -6 22 -10 167 -10 347 l0 311 -99
172 c-55 95 -103 181 -106 192 -4 13 2 28 19 45 l26 26 762 -3 763 -3 41 -22z"/>
</g>
</svg>
